<svg width="145" height="148" viewBox="0 0 145 148" fill="none" xmlns="http://www.w3.org/2000/svg">
<ellipse cx="72.5" cy="74" rx="72.5" ry="74" fill="#5F37A8"/>
<ellipse cx="72.5" cy="70.7192" rx="72.5" ry="70.7192" fill="#834EE3"/>
<ellipse cx="72.5" cy="70.7192" rx="72.5" ry="70.7192" fill="url(#paint0_linear)"/>
<ellipse cx="72.5" cy="72.1774" rx="55.6566" ry="55.4089" fill="#BABFD4"/>
<ellipse cx="72.5" cy="75.0937" rx="55.6566" ry="52.4926" fill="url(#paint1_linear)"/>
<path fill-rule="evenodd" clip-rule="evenodd" d="M99.1979 45.8772C96.8072 44.6633 93.7125 45.0965 90.4837 47.0963C87.9304 48.6779 85.5865 51.0801 84.3669 53.3654C82.0378 57.7293 82.9511 61.5772 83.5389 63.2018C82.7352 65.7547 81.6257 67.8761 80.2147 69.5636C79.0773 68.1383 78.4428 66.3427 78.4428 64.4645V64.373L81.4321 61.2875C81.7515 60.9577 82.5784 59.6582 81.432 58.4748C80.6796 57.6983 79.4595 57.6983 78.7071 58.4748L78.4426 58.7479V58.1268C78.4426 57.0286 77.5799 56.1381 76.5158 56.1381C75.4518 56.1381 74.5891 57.0286 74.5891 58.1268V58.7479L74.3246 58.4748C73.5722 57.6983 72.3521 57.6983 71.5997 58.4748C70.8472 59.2514 70.8472 60.5107 71.5997 61.2874L74.5892 64.3727V64.4643C74.5892 67.306 75.559 70.0225 77.2976 72.1661C74.1754 74.1988 70.1306 74.8873 65.1858 74.2176C63.4019 73.9758 61.6007 73.9457 59.8351 74.1223C57.6208 71.8876 54.586 70.6196 51.3894 70.6196H51.2994L48.2672 67.637C47.5041 66.8864 46.2665 66.8864 45.5033 67.637C44.7402 68.3877 44.7402 69.605 45.5033 70.3558L45.7716 70.6197H45.1614C44.0821 70.6197 43.2071 71.4804 43.2071 72.5421C43.2071 73.6037 44.0821 74.4641 45.1614 74.4641H45.7717L45.5033 74.7282C44.7402 75.4788 44.7402 76.6961 45.5033 77.4469C45.8849 77.8223 46.3851 78.01 46.8852 78.01C47.3854 78.01 47.8856 77.8223 48.2673 77.4469L51.2995 74.4642H51.3895C52.5728 74.4642 53.7225 74.7254 54.7647 75.2108C54.9054 75.1726 55.0465 75.1355 55.1879 75.0997C55.1447 75.1139 55.1015 75.1282 55.0584 75.1427C51.7516 76.2535 48.7689 78.1823 46.4332 80.7202C42.4055 85.0962 40.9305 90.5538 42.1675 96.5033C43.0785 100.884 45.1552 103.988 45.2431 104.118C45.6156 104.669 46.2307 104.985 46.8734 104.985C47.0304 104.985 47.1892 104.966 47.3462 104.928C48.1469 104.729 48.7396 104.051 48.8321 103.228C48.8424 103.138 49.9108 94.1377 55.4286 89.0454C56.1314 88.3969 58.7882 86.3301 63.4729 86.9646C65.1264 87.1886 66.7259 87.3221 68.2704 87.3655C69.1174 89.0118 69.3786 90.9148 68.9821 92.7587L68.9629 92.848L65.3451 95.2005C64.4345 95.7928 64.1705 97.0198 64.7558 97.9412C65.341 98.863 66.5535 99.1297 67.4643 98.5377L67.7843 98.3295L67.6541 98.9346C67.4241 100.005 68.0949 101.061 69.1525 101.294C69.293 101.325 69.433 101.34 69.5711 101.34C70.473 101.34 71.2847 100.706 71.4845 99.7782L71.6146 99.1731L71.8204 99.4971C72.1948 100.087 72.8262 100.409 73.471 100.409C73.8337 100.409 74.2008 100.307 74.5288 100.094C75.4392 99.5013 75.7032 98.2743 75.1179 97.3529L72.7932 93.6917L72.8124 93.6023C73.2721 91.4649 73.142 89.2738 72.4707 87.2498C77.8029 86.7849 82.3647 85.087 86.0962 82.1686C86.5372 81.8237 86.9657 81.4626 87.3814 81.0857C89.5073 82.917 92.2411 83.9422 95.1051 83.9422H95.1948L98.216 86.9247C98.5964 87.3003 99.0945 87.4879 99.593 87.4879C100.091 87.4879 100.59 87.3002 100.97 86.9247C101.73 86.1741 101.73 84.9568 100.97 84.2061L100.703 83.942H101.311C102.386 83.9422 103.258 83.0814 103.258 82.0198C103.258 80.9582 102.386 80.0975 101.31 80.0975H100.702L100.97 79.8336C101.73 79.083 101.73 77.8657 100.97 77.1149C100.209 76.3641 98.9764 76.3643 98.2158 77.1149L95.1947 80.0974H95.105C93.2283 80.0974 91.435 79.4394 90.0261 78.2608C92.1765 75.5606 93.8611 72.2953 95.0601 68.4962C98.1559 67.3957 100.35 65.586 101.588 63.1096C103.781 58.7223 104.556 48.5975 99.1979 45.8772Z" fill="#3B4262"/>
<defs>
<linearGradient id="paint0_linear" x1="0" y1="0" x2="0" y2="141.438" gradientUnits="userSpaceOnUse">
<stop stop-color="white" stop-opacity="0.0966455"/>
<stop offset="1" stop-color="white" stop-opacity="0.01"/>
</linearGradient>
<linearGradient id="paint1_linear" x1="127.234" y1="127.586" x2="127.234" y2="24.3412" gradientUnits="userSpaceOnUse">
<stop stop-color="#F3F3F3"/>
<stop offset="1" stop-color="#DADADA"/>
</linearGradient>
</defs>
</svg>
