<svg width="145" height="148" viewBox="0 0 145 148" fill="none" xmlns="http://www.w3.org/2000/svg">
<ellipse cx="72.5" cy="74" rx="72.5" ry="74" fill="#2A45C2"/>
<ellipse cx="72.5" cy="70.7192" rx="72.5" ry="70.7192" fill="#4664F4"/>
<ellipse cx="72.5" cy="70.7192" rx="72.5" ry="70.7192" fill="url(#paint0_linear)"/>
<ellipse cx="72.5001" cy="72.1774" rx="55.6566" ry="55.4089" fill="#BABFD4"/>
<ellipse cx="72.5001" cy="75.0937" rx="55.6566" ry="52.4926" fill="url(#paint1_linear)"/>
<path d="M94.1248 57.8314C93.7147 57.6747 93.2876 57.6068 92.8935 57.6342C92.324 57.6739 91.8641 57.9051 91.5916 58.2836C89.9867 60.5316 88.6723 64.7772 87.6124 68.1884C87.126 69.766 86.4729 71.8771 86.0001 72.8791C85.5068 70.0719 86.0639 59.7889 86.2801 55.8288L86.2836 55.7648C86.4334 53.0135 86.4536 52.5311 86.4207 52.3192C86.1827 50.8099 85.5778 49.8193 84.6223 49.3759C83.6563 48.9262 82.4018 49.1251 81.0504 49.9383C80.3728 50.348 80.1855 51.7544 79.6039 58.1291L79.6018 58.1572C79.2815 61.6593 78.5444 69.7231 77.6373 71.066C76.614 69.1871 75.2059 58.5119 74.5982 53.8912C74.1729 50.655 73.9252 48.7969 73.7588 48.2358C73.4081 47.0601 71.9282 46.0597 70.4628 46.0042C69.2431 45.9437 68.2423 46.5641 67.7647 47.6422C66.8711 48.6365 67.1868 51.9341 68.1745 59.7443C68.6447 63.4613 69.6151 71.1393 69.0044 72.0005C67.7866 71.8682 65.696 67.0588 62.7899 57.702C61.9746 55.0816 61.7222 54.2934 61.4718 53.9484C60.9782 52.7468 59.3004 51.8199 57.7962 51.9246C57.6677 51.9336 57.5429 51.9502 57.4195 51.9738C56.6321 52.1301 54.8353 52.8549 55.2183 56.1995C56.2794 60.8364 57.4318 64.241 58.5503 67.5455L58.5729 67.6117C59.2421 69.5909 59.8748 71.4611 60.4626 73.5365C61.8482 78.4367 61.3095 81.4771 61.3029 81.5113C61.2568 81.8243 61.1602 82.0153 61.0149 82.0821C60.9626 82.1067 60.8955 82.1213 60.82 82.1266C60.3809 82.1571 59.7222 81.8664 59.3828 81.6769C58.6074 80.1951 54.747 73.1326 51.2489 72.1531L51.1232 72.116L50.996 72.1278C49.713 72.249 48.7697 72.7339 48.1931 73.5689C47.2795 74.8893 47.6577 76.5711 47.7494 76.9083L47.801 77.0292C47.8296 77.08 50.6348 82.1941 51.069 84.5731C51.4434 86.6126 53.3804 88.8232 54.9377 90.5992L55.0018 90.6714C55.5098 91.2526 55.9483 91.7548 56.294 92.2197C60.8127 96.9327 67.959 100.897 68.0172 100.929C68.9088 101.587 69.4046 102.223 69.457 102.77C69.4901 103.128 69.3041 103.342 69.2976 103.35L69.142 103.512L70.1297 104.472L88.9833 103.147L89.7871 99.4643C92.2726 89.0618 91.7538 80.1922 91.7455 80.133C91.7546 79.8067 92.4513 76.6508 93.0115 74.101L93.028 74.0362C94.1448 68.9567 95.5336 62.6364 95.8 60.2325C95.9158 59.2047 95.2583 58.2605 94.1248 57.8314Z" fill="#3B4262"/>
<defs>
<linearGradient id="paint0_linear" x1="0" y1="0" x2="0" y2="141.438" gradientUnits="userSpaceOnUse">
<stop stop-color="white" stop-opacity="0.0966455"/>
<stop offset="1" stop-color="white" stop-opacity="0.01"/>
</linearGradient>
<linearGradient id="paint1_linear" x1="127.234" y1="127.586" x2="127.234" y2="24.3412" gradientUnits="userSpaceOnUse">
<stop stop-color="#F3F3F3"/>
<stop offset="1" stop-color="#DADADA"/>
</linearGradient>
</defs>
</svg>
