<svg width="145" height="148" viewBox="0 0 145 148" fill="none" xmlns="http://www.w3.org/2000/svg">
<ellipse cx="72.5" cy="74" rx="72.5" ry="74" fill="#9D1634"/>
<ellipse cx="72.5" cy="70.7192" rx="72.5" ry="70.7192" fill="#DB2E4D"/>
<ellipse cx="72.5" cy="70.7192" rx="72.5" ry="70.7192" fill="url(#paint0_linear)"/>
<ellipse cx="72.5" cy="72.1774" rx="55.6566" ry="55.4089" fill="#BABFD4"/>
<ellipse cx="72.5" cy="75.0937" rx="55.6566" ry="52.4926" fill="url(#paint1_linear)"/>
<path d="M94.0603 64.2197C93.4184 56.1246 84.3264 56.9512 84.3264 56.9512C80.4887 50.1865 74.4937 55.0863 74.4937 55.0863C69.8881 48.4565 64.1134 54.6 64.1134 54.6C54.1569 53.5264 54.5428 61.6664 54.5428 61.6664C54.3085 64.254 55.946 72.2596 55.946 72.2596C54.4689 67.6455 51.265 71.4756 51.265 71.4756C47.3264 77.5534 50.2912 80.8803 50.2912 80.8803C55.6208 87.1266 66.9788 94.6231 66.9788 94.6231C71.0914 96.9791 69.3519 99.0799 69.3519 99.0799L94.2275 94.9697L94.7994 90.2524C98.5808 78.8158 94.0603 64.2197 94.0603 64.2197Z" fill="#3B4262"/>
<defs>
<linearGradient id="paint0_linear" x1="0" y1="0" x2="0" y2="141.438" gradientUnits="userSpaceOnUse">
<stop stop-color="white" stop-opacity="0.0966455"/>
<stop offset="1" stop-color="white" stop-opacity="0.01"/>
</linearGradient>
<linearGradient id="paint1_linear" x1="127.234" y1="127.586" x2="127.234" y2="24.3412" gradientUnits="userSpaceOnUse">
<stop stop-color="#F3F3F3"/>
<stop offset="1" stop-color="#DADADA"/>
</linearGradient>
</defs>
</svg>
