<svg width="145" height="148" viewBox="0 0 145 148" fill="none" xmlns="http://www.w3.org/2000/svg">
<ellipse cx="72.5" cy="74" rx="72.5" ry="74" fill="#C76C1B"/>
<ellipse cx="72.5" cy="70.7192" rx="72.5" ry="70.7192" fill="#EB9F0E"/>
<ellipse cx="72.5" cy="70.7192" rx="72.5" ry="70.7192" fill="url(#paint0_linear)"/>
<ellipse cx="72.5" cy="72.1774" rx="55.6566" ry="55.4089" fill="#BABFD4"/>
<ellipse cx="72.5" cy="75.0937" rx="55.6566" ry="52.4926" fill="url(#paint1_linear)"/>
<path d="M57.9707 71.703L63.9826 63.2873C61.4837 62.8727 56.8949 62.7808 53.1362 66.5228C47.2111 72.4215 44.8116 85.164 44.3113 88.2485L59.3699 103.24C62.0807 103.009 74.0829 101.414 85.648 89.9001C85.7708 89.6515 88.5878 87.5791 86.2846 85.2862C85.1853 84.1917 83.3655 84.2121 82.2424 85.3303C81.6705 85.8996 80.7812 85.908 80.2212 85.3505C79.6613 84.7931 79.6697 83.9076 80.2415 83.3384L84.3281 79.2699C86.405 77.2024 84.4473 73.7143 81.5488 74.5523L78.203 77.4037C77.592 77.934 76.6839 77.8421 76.1817 77.2643C75.6628 76.6661 75.7737 75.7603 76.3643 75.2505C88.0512 65.0423 86.3452 66.2717 93.8638 59.2556C96.6731 56.927 93.1393 52.8081 90.371 55.1664L72.1819 71.4502C71.6528 71.8989 70.8418 71.9073 70.3211 71.4297C69.7202 70.9131 69.7063 70.1687 70.0992 69.5807L82.7864 49.9446C84.6409 47.4443 80.991 44.6674 79.0377 47.188L60.2787 73.3073C59.8263 73.9583 58.9147 74.1078 58.2934 73.6524C57.6702 73.2359 57.4996 72.3318 57.9707 71.703Z" fill="#3B4262"/>
<defs>
<linearGradient id="paint0_linear" x1="0" y1="0" x2="0" y2="141.438" gradientUnits="userSpaceOnUse">
<stop stop-color="white" stop-opacity="0.0966455"/>
<stop offset="1" stop-color="white" stop-opacity="0.01"/>
</linearGradient>
<linearGradient id="paint1_linear" x1="127.234" y1="127.586" x2="127.234" y2="24.3412" gradientUnits="userSpaceOnUse">
<stop stop-color="#F3F3F3"/>
<stop offset="1" stop-color="#DADADA"/>
</linearGradient>
</defs>
</svg>
